%TF.GenerationSoftware,KiCad,Pcbnew,10.0.3*%
%TF.CreationDate,2026-06-04T11:40:54-07:00*%
%TF.ProjectId,Poetry Reader,506f6574-7279-4205-9265-616465722e6b,rev?*%
%TF.SameCoordinates,Original*%
%TF.FileFunction,Soldermask,Top*%
%TF.FilePolarity,Negative*%
%FSLAX46Y46*%
G04 Gerber Fmt 4.6, Leading zero omitted, Abs format (unit mm)*
G04 Created by KiCad (PCBNEW 10.0.3) date 2026-06-04 11:40:54*
%MOMM*%
%LPD*%
G01*
G04 APERTURE LIST*
G04 Aperture macros list*
%AMRoundRect*
0 Rectangle with rounded corners*
0 $1 Rounding radius*
0 $2 $3 $4 $5 $6 $7 $8 $9 X,Y pos of 4 corners*
0 Add a 4 corners polygon primitive as box body*
4,1,4,$2,$3,$4,$5,$6,$7,$8,$9,$2,$3,0*
0 Add four circle primitives for the rounded corners*
1,1,$1+$1,$2,$3*
1,1,$1+$1,$4,$5*
1,1,$1+$1,$6,$7*
1,1,$1+$1,$8,$9*
0 Add four rect primitives between the rounded corners*
20,1,$1+$1,$2,$3,$4,$5,0*
20,1,$1+$1,$4,$5,$6,$7,0*
20,1,$1+$1,$6,$7,$8,$9,0*
20,1,$1+$1,$8,$9,$2,$3,0*%
G04 Aperture macros list end*
%ADD10RoundRect,0.170000X-0.680000X-0.680000X0.680000X-0.680000X0.680000X0.680000X-0.680000X0.680000X0*%
%ADD11C,1.700000*%
%ADD12C,1.524000*%
G04 APERTURE END LIST*
D10*
%TO.C,U2*%
X137500000Y-73000000D03*
D11*
X140040000Y-73000000D03*
X142580000Y-73000000D03*
X145120000Y-73000000D03*
%TD*%
%TO.C,BTN_LEFT1*%
X130250000Y-116500000D03*
X136750000Y-116500000D03*
X130250000Y-119500000D03*
X136750000Y-119500000D03*
%TD*%
%TO.C,BTN_UP1*%
X139250000Y-110500000D03*
X145750000Y-110500000D03*
X139250000Y-113500000D03*
X145750000Y-113500000D03*
%TD*%
%TO.C,BTN_POWER1*%
X130250000Y-110500000D03*
X136750000Y-110500000D03*
X130250000Y-113500000D03*
X136750000Y-113500000D03*
%TD*%
%TO.C,BTN_DOWN1*%
X139250000Y-122500000D03*
X145750000Y-122500000D03*
X139250000Y-125500000D03*
X145750000Y-125500000D03*
%TD*%
%TO.C,BTN_SELECT1*%
X139250000Y-116500000D03*
X145750000Y-116500000D03*
X139250000Y-119500000D03*
X145750000Y-119500000D03*
%TD*%
%TO.C,BTN_RIGHT1*%
X148250000Y-116500000D03*
X154750000Y-116500000D03*
X148250000Y-119500000D03*
X154750000Y-119500000D03*
%TD*%
D12*
%TO.C,U1*%
X153870000Y-92620000D03*
X151330000Y-92620000D03*
X148790000Y-92620000D03*
X146250000Y-92620000D03*
X143710000Y-92620000D03*
X141170000Y-92620000D03*
X138630000Y-92620000D03*
X138630000Y-77380000D03*
X141170000Y-77380000D03*
X143710000Y-77380000D03*
X146250000Y-77380000D03*
X148790000Y-77380000D03*
X151330000Y-77380000D03*
X153870000Y-77380000D03*
%TD*%
M02*
