M48
; DRILL file KiCad 10.0.3 date 2026-06-04T11:41:00
; FORMAT={-:-/ absolute / metric / decimal}
; #@! TF.CreationDate,2026-06-04T11:41:00-07:00
; #@! TF.GenerationSoftware,Kicad,Pcbnew,10.0.3
; #@! TF.FileFunction,Plated,1,2,PTH
FMAT,2
METRIC
; #@! TA.AperFunction,Plated,PTH,ComponentDrill
T1C0.889
; #@! TA.AperFunction,Plated,PTH,ComponentDrill
T2C1.000
%
G90
G05
T1
X138.63Y-77.38
X138.63Y-92.62
X141.17Y-77.38
X141.17Y-92.62
X143.71Y-77.38
X143.71Y-92.62
X146.25Y-77.38
X146.25Y-92.62
X148.79Y-77.38
X148.79Y-92.62
X151.33Y-77.38
X151.33Y-92.62
X153.87Y-77.38
X153.87Y-92.62
T2
X130.25Y-110.5
X130.25Y-113.5
X130.25Y-116.5
X130.25Y-119.5
X136.75Y-110.5
X136.75Y-113.5
X136.75Y-116.5
X136.75Y-119.5
X137.5Y-73.0
X139.25Y-110.5
X139.25Y-113.5
X139.25Y-116.5
X139.25Y-119.5
X139.25Y-122.5
X139.25Y-125.5
X140.04Y-73.0
X142.58Y-73.0
X145.12Y-73.0
X145.75Y-110.5
X145.75Y-113.5
X145.75Y-116.5
X145.75Y-119.5
X145.75Y-122.5
X145.75Y-125.5
X148.25Y-116.5
X148.25Y-119.5
X154.75Y-116.5
X154.75Y-119.5
M30
