%TF.GenerationSoftware,KiCad,Pcbnew,10.0.3*%
%TF.CreationDate,2026-06-04T11:40:54-07:00*%
%TF.ProjectId,Poetry Reader,506f6574-7279-4205-9265-616465722e6b,rev?*%
%TF.SameCoordinates,Original*%
%TF.FileFunction,Copper,L1,Top*%
%TF.FilePolarity,Positive*%
%FSLAX46Y46*%
G04 Gerber Fmt 4.6, Leading zero omitted, Abs format (unit mm)*
G04 Created by KiCad (PCBNEW 10.0.3) date 2026-06-04 11:40:54*
%MOMM*%
%LPD*%
G01*
G04 APERTURE LIST*
G04 Aperture macros list*
%AMRoundRect*
0 Rectangle with rounded corners*
0 $1 Rounding radius*
0 $2 $3 $4 $5 $6 $7 $8 $9 X,Y pos of 4 corners*
0 Add a 4 corners polygon primitive as box body*
4,1,4,$2,$3,$4,$5,$6,$7,$8,$9,$2,$3,0*
0 Add four circle primitives for the rounded corners*
1,1,$1+$1,$2,$3*
1,1,$1+$1,$4,$5*
1,1,$1+$1,$6,$7*
1,1,$1+$1,$8,$9*
0 Add four rect primitives between the rounded corners*
20,1,$1+$1,$2,$3,$4,$5,0*
20,1,$1+$1,$4,$5,$6,$7,0*
20,1,$1+$1,$6,$7,$8,$9,0*
20,1,$1+$1,$8,$9,$2,$3,0*%
G04 Aperture macros list end*
%TA.AperFunction,ComponentPad*%
%ADD10RoundRect,0.170000X-0.680000X-0.680000X0.680000X-0.680000X0.680000X0.680000X-0.680000X0.680000X0*%
%TD*%
%TA.AperFunction,ComponentPad*%
%ADD11C,1.700000*%
%TD*%
%TA.AperFunction,ComponentPad*%
%ADD12C,1.524000*%
%TD*%
%TA.AperFunction,Conductor*%
%ADD13C,0.200000*%
%TD*%
G04 APERTURE END LIST*
D10*
%TO.P,U2,1,GND_1*%
%TO.N,GND*%
X137500000Y-73000000D03*
D11*
%TO.P,U2,2,VCC_2*%
%TO.N,Net-(U1-VCC_3V3)*%
X140040000Y-73000000D03*
%TO.P,U2,3,SCL_3*%
%TO.N,Net-(U1-D5)*%
X142580000Y-73000000D03*
%TO.P,U2,4,SDA_4*%
%TO.N,Net-(U1-D4)*%
X145120000Y-73000000D03*
%TD*%
%TO.P,BTN_LEFT1,1,A_1*%
%TO.N,Net-(BTN_LEFT1-A)*%
X130250000Y-116500000D03*
%TO.P,BTN_LEFT1,2,B_2*%
%TO.N,GND*%
X136750000Y-116500000D03*
%TO.P,BTN_LEFT1,3,C_3*%
%TO.N,unconnected-(BTN_LEFT1-C-Pad3)*%
X130250000Y-119500000D03*
%TO.P,BTN_LEFT1,4,D_4*%
%TO.N,unconnected-(BTN_LEFT1-D-Pad4)*%
X136750000Y-119500000D03*
%TD*%
%TO.P,BTN_UP1,1,A_1*%
%TO.N,Net-(BTN_UP1-A)*%
X139250000Y-110500000D03*
%TO.P,BTN_UP1,2,B_2*%
%TO.N,GND*%
X145750000Y-110500000D03*
%TO.P,BTN_UP1,3,C_3*%
%TO.N,unconnected-(BTN_UP1-C-Pad3)*%
X139250000Y-113500000D03*
%TO.P,BTN_UP1,4,D_4*%
%TO.N,unconnected-(BTN_UP1-D-Pad4)*%
X145750000Y-113500000D03*
%TD*%
%TO.P,BTN_POWER1,1,A_1*%
%TO.N,Net-(BTN_POWER1-A)*%
X130250000Y-110500000D03*
%TO.P,BTN_POWER1,2,B_2*%
%TO.N,GND*%
X136750000Y-110500000D03*
%TO.P,BTN_POWER1,3,C_3*%
%TO.N,unconnected-(BTN_POWER1-C-Pad3)*%
X130250000Y-113500000D03*
%TO.P,BTN_POWER1,4,D_4*%
%TO.N,unconnected-(BTN_POWER1-D-Pad4)*%
X136750000Y-113500000D03*
%TD*%
%TO.P,BTN_DOWN1,1,A_1*%
%TO.N,Net-(BTN_DOWN1-A)*%
X139250000Y-122500000D03*
%TO.P,BTN_DOWN1,2,B_2*%
%TO.N,GND*%
X145750000Y-122500000D03*
%TO.P,BTN_DOWN1,3,C_3*%
%TO.N,unconnected-(BTN_DOWN1-C-Pad3)*%
X139250000Y-125500000D03*
%TO.P,BTN_DOWN1,4,D_4*%
%TO.N,unconnected-(BTN_DOWN1-D-Pad4)*%
X145750000Y-125500000D03*
%TD*%
%TO.P,BTN_SELECT1,1,A_1*%
%TO.N,Net-(BTN_SELECT1-A)*%
X139250000Y-116500000D03*
%TO.P,BTN_SELECT1,2,B_2*%
%TO.N,GND*%
X145750000Y-116500000D03*
%TO.P,BTN_SELECT1,3,C_3*%
%TO.N,unconnected-(BTN_SELECT1-C-Pad3)*%
X139250000Y-119500000D03*
%TO.P,BTN_SELECT1,4,D_4*%
%TO.N,unconnected-(BTN_SELECT1-D-Pad4)*%
X145750000Y-119500000D03*
%TD*%
%TO.P,BTN_RIGHT1,1,A_1*%
%TO.N,Net-(BTN_RIGHT1-A)*%
X148250000Y-116500000D03*
%TO.P,BTN_RIGHT1,2,B_2*%
%TO.N,GND*%
X154750000Y-116500000D03*
%TO.P,BTN_RIGHT1,3,C_3*%
%TO.N,unconnected-(BTN_RIGHT1-C-Pad3)*%
X148250000Y-119500000D03*
%TO.P,BTN_RIGHT1,4,D_4*%
%TO.N,unconnected-(BTN_RIGHT1-D-Pad4)*%
X154750000Y-119500000D03*
%TD*%
D12*
%TO.P,U1,1,D0_1*%
%TO.N,Net-(BTN_UP1-A)*%
X153870000Y-92620000D03*
%TO.P,U1,2,D1_2*%
%TO.N,Net-(BTN_SELECT1-A)*%
X151330000Y-92620000D03*
%TO.P,U1,3,D2_3*%
%TO.N,Net-(BTN_LEFT1-A)*%
X148790000Y-92620000D03*
%TO.P,U1,4,D3_4*%
%TO.N,Net-(BTN_DOWN1-A)*%
X146250000Y-92620000D03*
%TO.P,U1,5,D4_5*%
%TO.N,Net-(U1-D4)*%
X143710000Y-92620000D03*
%TO.P,U1,6,D5_6*%
%TO.N,Net-(U1-D5)*%
X141170000Y-92620000D03*
%TO.P,U1,7,D6_7*%
%TO.N,Net-(BTN_RIGHT1-A)*%
X138630000Y-92620000D03*
%TO.P,U1,8,D7_8*%
%TO.N,Net-(BTN_POWER1-A)*%
X138630000Y-77380000D03*
%TO.P,U1,9,D8_9*%
%TO.N,unconnected-(U1-D8-Pad9)*%
X141170000Y-77380000D03*
%TO.P,U1,10,D9_10*%
%TO.N,unconnected-(U1-D9-Pad10)*%
X143710000Y-77380000D03*
%TO.P,U1,11,D10_11*%
%TO.N,unconnected-(U1-D10-Pad11)*%
X146250000Y-77380000D03*
%TO.P,U1,12,VCC_3V3_12*%
%TO.N,Net-(U1-VCC_3V3)*%
X148790000Y-77380000D03*
%TO.P,U1,13,GND_13*%
%TO.N,GND*%
X151330000Y-77380000D03*
%TO.P,U1,14,VUSB_14*%
%TO.N,unconnected-(U1-VUSB-Pad14)*%
X153870000Y-77380000D03*
%TD*%
%TO.N,GND*%
D13*
X136750000Y-110500000D02*
X152392000Y-94858000D01*
X152392000Y-94858000D02*
X152392000Y-92180105D01*
X152392000Y-92180105D02*
X151769895Y-91558000D01*
X151769895Y-91558000D02*
X150692000Y-91558000D01*
X150692000Y-91558000D02*
X149942000Y-92308000D01*
X149942000Y-92308000D02*
X149942000Y-92969895D01*
X149942000Y-92969895D02*
X149229895Y-93682000D01*
X149229895Y-93682000D02*
X148350105Y-93682000D01*
X148350105Y-93682000D02*
X147312000Y-92643895D01*
X147312000Y-92643895D02*
X147312000Y-75312000D01*
X147312000Y-75312000D02*
X147250000Y-75250000D01*
%TO.N,Net-(U1-VCC_3V3)*%
X140040000Y-73000000D02*
X140516346Y-72523654D01*
X140516346Y-72523654D02*
X141430000Y-72523654D01*
X141430000Y-72523654D02*
X142103654Y-71850000D01*
X142103654Y-71850000D02*
X143056346Y-71850000D01*
X143056346Y-71850000D02*
X143730000Y-72523654D01*
X143730000Y-72523654D02*
X143730000Y-73236346D01*
X143730000Y-73236346D02*
X144743654Y-74250000D01*
X144743654Y-74250000D02*
X150500000Y-74250000D01*
X152808000Y-77819895D02*
X152127895Y-78500000D01*
X150500000Y-74250000D02*
X152808000Y-76558000D01*
X152808000Y-76558000D02*
X152808000Y-77819895D01*
X152127895Y-78500000D02*
X149910000Y-78500000D01*
X149910000Y-78500000D02*
X148790000Y-77380000D01*
%TO.N,Net-(BTN_LEFT1-A)*%
X130250000Y-116500000D02*
X128900000Y-115150000D01*
X139692000Y-93059895D02*
X139692000Y-91323372D01*
X139692000Y-91323372D02*
X134850000Y-86481371D01*
X128900000Y-115150000D02*
X128900000Y-103851895D01*
X128900000Y-103851895D02*
X139692000Y-93059895D01*
X134850000Y-86481371D02*
X134850000Y-71334314D01*
X134850000Y-71334314D02*
X135834315Y-70350000D01*
X135834315Y-70350000D02*
X148341895Y-70350000D01*
X148341895Y-70350000D02*
X154932000Y-76940105D01*
X154932000Y-76940105D02*
X154932000Y-78318000D01*
X148790000Y-84460000D02*
X148790000Y-92620000D01*
X154932000Y-78318000D02*
X148790000Y-84460000D01*
%TO.N,Net-(BTN_RIGHT1-A)*%
X138630000Y-92620000D02*
X128500000Y-102750000D01*
X128500000Y-102750000D02*
X128500000Y-119376346D01*
X128500000Y-119376346D02*
X132773654Y-123650000D01*
X132773654Y-123650000D02*
X152226346Y-123650000D01*
X152226346Y-123650000D02*
X155900000Y-119976346D01*
X155900000Y-119976346D02*
X155900000Y-116023654D01*
X155900000Y-116023654D02*
X155126346Y-115250000D01*
X155126346Y-115250000D02*
X149500000Y-115250000D01*
X149500000Y-115250000D02*
X148250000Y-116500000D01*
%TO.N,Net-(BTN_POWER1-A)*%
X138630000Y-77380000D02*
X145000000Y-83750000D01*
X145000000Y-83750000D02*
X145000000Y-95750000D01*
X145000000Y-95750000D02*
X130250000Y-110500000D01*
%TO.N,GND*%
X149200000Y-75250000D02*
X151330000Y-77380000D01*
X138000000Y-75250000D02*
X147250000Y-75250000D01*
X145750000Y-116500000D02*
X146900000Y-115350000D01*
X137900000Y-111650000D02*
X144600000Y-111650000D01*
X144600000Y-117650000D02*
X145750000Y-116500000D01*
X146900000Y-115350000D02*
X146900000Y-111650000D01*
X146900000Y-117650000D02*
X153600000Y-117650000D01*
X146900000Y-111650000D02*
X145750000Y-110500000D01*
X153600000Y-117650000D02*
X154750000Y-116500000D01*
X147250000Y-75250000D02*
X149200000Y-75250000D01*
X136750000Y-110500000D02*
X137900000Y-111650000D01*
X146900000Y-121350000D02*
X146900000Y-117650000D01*
X136750000Y-116500000D02*
X137900000Y-117650000D01*
X145750000Y-122500000D02*
X146900000Y-121350000D01*
X137500000Y-74750000D02*
X138000000Y-75250000D01*
X137900000Y-117650000D02*
X144600000Y-117650000D01*
X145750000Y-116500000D02*
X146900000Y-117650000D01*
X144600000Y-111650000D02*
X145750000Y-110500000D01*
X137500000Y-73000000D02*
X137500000Y-74750000D01*
%TO.N,Net-(BTN_UP1-A)*%
X139250000Y-110500000D02*
X153870000Y-95880000D01*
X153870000Y-95880000D02*
X153870000Y-92620000D01*
%TO.N,Net-(BTN_DOWN1-A)*%
X132500000Y-121500000D02*
X138250000Y-121500000D01*
X131500000Y-109815686D02*
X131500000Y-120500000D01*
X146250000Y-95065686D02*
X144915685Y-96400000D01*
X138250000Y-121500000D02*
X139250000Y-122500000D01*
X146250000Y-92620000D02*
X146250000Y-95065686D01*
X144915685Y-96400000D02*
X131500000Y-109815686D01*
X131500000Y-120500000D02*
X132500000Y-121500000D01*
%TO.N,Net-(BTN_SELECT1-A)*%
X135600000Y-108350000D02*
X151330000Y-92620000D01*
X139700000Y-112200000D02*
X136823654Y-112200000D01*
X139250000Y-116500000D02*
X140400000Y-115350000D01*
X140400000Y-112900000D02*
X139700000Y-112200000D01*
X135600000Y-110976346D02*
X135600000Y-108350000D01*
X136823654Y-112200000D02*
X135600000Y-110976346D01*
X140400000Y-115350000D02*
X140400000Y-112900000D01*
%TO.N,Net-(U1-D4)*%
X135250000Y-71500000D02*
X135250000Y-86315686D01*
X140108000Y-93059895D02*
X140730105Y-93682000D01*
X135250000Y-86315686D02*
X140108000Y-91173686D01*
X140730105Y-93682000D02*
X142648000Y-93682000D01*
X140108000Y-91173686D02*
X140108000Y-93059895D01*
X142648000Y-93682000D02*
X143710000Y-92620000D01*
X136000000Y-70750000D02*
X135250000Y-71500000D01*
X142870000Y-70750000D02*
X136000000Y-70750000D01*
X145120000Y-73000000D02*
X142870000Y-70750000D01*
%TO.N,Net-(U1-D5)*%
X136165686Y-71150000D02*
X135650000Y-71665686D01*
X135650000Y-86150000D02*
X141170000Y-91670000D01*
X138750000Y-71750000D02*
X138150000Y-71150000D01*
X135650000Y-71665686D02*
X135650000Y-86150000D01*
X142580000Y-73000000D02*
X141830000Y-73000000D01*
X138750000Y-73336346D02*
X138750000Y-71750000D01*
X138150000Y-71150000D02*
X136165686Y-71150000D01*
X139663654Y-74250000D02*
X138750000Y-73336346D01*
X141269340Y-74250000D02*
X139663654Y-74250000D01*
X141853654Y-73665686D02*
X141269340Y-74250000D01*
X141830000Y-73310660D02*
X141853654Y-73334315D01*
X141830000Y-73000000D02*
X141830000Y-73310660D01*
X141853654Y-73334315D02*
X141853654Y-73665686D01*
X141170000Y-91670000D02*
X141170000Y-92620000D01*
%TD*%
M02*
